<?xml version="1.0" standalone="no"?>
<!DOCTYPE svg PUBLIC "-//W3C//DTD SVG 20010904//EN"
 "http://www.w3.org/TR/2001/REC-SVG-20010904/DTD/svg10.dtd">
<svg version="1.0" xmlns="http://www.w3.org/2000/svg"
 width="400.000000pt" height="400.000000pt" viewBox="0 0 400.000000 400.000000"
 preserveAspectRatio="xMidYMid meet">
<metadata>
Created by potrace 1.11, written by Peter Selinger 2001-2013
</metadata>
<g transform="translate(0.000000,400.000000) scale(0.100000,-0.100000)"
fill="#000000" stroke="none">
<path d="M1848 3996 c-1 -2 -32 -6 -68 -9 -103 -9 -315 -56 -424 -94 -122 -43
-397 -174 -426 -203 -3 -3 -32 -23 -65 -45 -139 -91 -324 -262 -422 -391 -13
-16 -37 -47 -54 -69 -120 -156 -246 -411 -307 -625 -62 -217 -77 -331 -76
-580 1 -259 36 -457 120 -672 20 -51 41 -106 48 -123 17 -44 113 -222 149
-275 117 -173 239 -311 391 -442 48 -41 203 -153 236 -170 14 -7 27 -16 30
-20 3 -4 66 -36 140 -72 182 -86 395 -157 523 -172 22 -3 44 -7 47 -9 28 -18
414 -27 536 -13 91 10 259 45 354 74 99 30 294 109 330 135 14 9 29 17 33 17
17 1 226 136 297 193 276 221 495 517 623 845 35 88 80 237 91 299 3 17 8 41
11 55 43 217 41 582 -6 770 -4 19 -11 50 -14 69 -13 74 -90 283 -150 406 -123
254 -264 437 -486 637 -75 67 -259 198 -278 198 -6 0 -11 4 -11 8 0 13 -266
137 -369 172 -133 45 -270 78 -401 96 -47 6 -396 15 -402 10z"/>
</g>
</svg>
