<!-- Generated by IcoMoon.io -->
<svg version="1.1" xmlns="http://www.w3.org/2000/svg" width="32" height="32" viewBox="0 0 32 32">
<title>camera</title>
<path d="M26.088 7.556h-3.82l-0.444-1.333c-0.441-1.3-1.649-2.22-3.073-2.223h-5.499c-1.416 0.002-2.619 0.91-3.060 2.176l-0.007 0.023-0.007 0.023-0.445 1.333h-3.82c-1.791 0.002-3.243 1.454-3.245 3.245v13.067c0.004 1.791 1.456 3.241 3.247 3.243h20.176c1.79-0.003 3.24-1.453 3.244-3.242v-13.067c-0.004-1.791-1.456-3.241-3.247-3.243h-0zM27.555 23.865c0 0.81-0.657 1.467-1.467 1.467v0h-20.175c-0.81 0-1.467-0.657-1.467-1.467v0-13.065c0-0.81 0.657-1.467 1.467-1.467v0h4.459c0 0 0.001 0 0.001 0 0.388 0 0.718-0.249 0.839-0.595l0.002-0.006 0.655-1.951c0.199-0.587 0.744-1.002 1.386-1.004h5.495c0.64 0 1.185 0.411 1.385 0.983l0.003 0.010v0.011l0.648 1.943c0.121 0.357 0.453 0.609 0.844 0.609 0 0 0.001 0 0.001 0h4.457c0.81 0 1.467 0.657 1.467 1.467v0 0z"></path>
<path d="M16.001 10.223c-3.682 0-6.667 2.985-6.667 6.667s2.985 6.667 6.667 6.667c3.682 0 6.667-2.985 6.667-6.667v0 0c-0.005-3.68-2.987-6.662-6.666-6.667h-0zM16.001 21.779c-2.7 0-4.889-2.189-4.889-4.889s2.189-4.889 4.889-4.889c2.7 0 4.889 2.189 4.889 4.889v0c-0.003 2.699-2.19 4.886-4.889 4.889h-0z"></path>
<path d="M25.779 12c0 0.491-0.398 0.889-0.889 0.889s-0.889-0.398-0.889-0.889c0-0.491 0.398-0.889 0.889-0.889 0 0 0.001 0 0.001 0h-0c0.491 0.001 0.888 0.399 0.888 0.889 0 0 0 0 0 0v0z"></path>
</svg>
