<!-- Generated by IcoMoon.io -->
<svg version="1.1" xmlns="http://www.w3.org/2000/svg" width="32" height="32" viewBox="0 0 32 32">
<title>camping-fire</title>
<path d="M13.091 23.704l-6.613-2.645c-0.092-0.038-0.198-0.060-0.309-0.060-0.46 0-0.834 0.373-0.834 0.834 0 0.349 0.214 0.648 0.519 0.772l0.006 0.002 4.988 2 2.244-0.897z"></path>
<path d="M25.269 21.525c-0.127-0.31-0.426-0.524-0.775-0.524-0.111 0-0.217 0.022-0.313 0.061l0.006-0.002-16.667 6.667c-0.311 0.126-0.526 0.425-0.526 0.775 0 0.46 0.373 0.833 0.833 0.833 0.001 0 0.002 0 0.002 0h-0c0.001 0 0.003 0 0.004 0 0.11 0 0.215-0.022 0.31-0.061l-0.005 0.002 7.191-2.876 7.191 2.876c0.090 0.037 0.195 0.059 0.305 0.059 0.002 0 0.003 0 0.005 0h-0c0.001 0 0.001 0 0.002 0 0.46 0 0.833-0.373 0.833-0.833 0-0.35-0.215-0.649-0.521-0.773l-0.006-0.002-5.565-2.225 7.232-2.892c0.31-0.126 0.524-0.425 0.524-0.774 0-0.112-0.022-0.218-0.062-0.316l0.002 0.006z"></path>
<path d="M15.335 22.667c0.087 0.003 0.19 0.005 0.292 0.005 4.327 0 7.857-3.415 8.040-7.697l0.001-0.017c0-5.475-5.56-11.179-8-12.224-0.097-0.043-0.21-0.068-0.329-0.068-0.46 0-0.832 0.373-0.832 0.832 0 0 0 0.001 0 0.001v-0c0 3.155-1.769 4.365-3.643 5.645-1.812 1.239-3.863 2.64-3.863 5.813 0.184 4.298 3.714 7.713 8.041 7.713 0.103 0 0.206-0.002 0.308-0.006l-0.015 0zM13.668 19.333c0.104-1.020 0.528-1.925 1.169-2.629l-0.003 0.004c0.329 0.585 0.779 1.065 1.318 1.421l0.015 0.009c0.591 0.44 0.829 0.641 0.829 1.2 0 0.92-0.746 1.667-1.667 1.667s-1.667-0.746-1.667-1.667v0zM11.801 10.524c1.789-1.225 3.788-2.592 4.267-5.609 2.316 1.733 5.939 6.095 5.939 10.047-0.061 2.33-1.447 4.321-3.43 5.254l-0.036 0.015c0.081-0.267 0.13-0.575 0.133-0.893l0-0.002c-0.018-1.081-0.611-2.020-1.486-2.526l-0.014-0.008c-0.603-0.449-1-0.747-1-1.636 0-0 0-0 0-0.001 0-0.46-0.373-0.833-0.833-0.833-0.128 0-0.249 0.029-0.357 0.080l0.005-0.002c-1.671 1.068-2.808 2.846-2.985 4.899l-0.002 0.024c0.003 0.32 0.052 0.627 0.139 0.918l-0.006-0.023c-2.019-0.948-3.406-2.94-3.466-5.261l-0-0.008c0-2.292 1.383-3.24 3.133-4.435z"></path>
</svg>
