<!-- Generated by IcoMoon.io -->
<svg version="1.1" xmlns="http://www.w3.org/2000/svg" width="32" height="32" viewBox="0 0 32 32">
<title>email_me</title>
<path d="M29.201 14.153c-0.769-6.701-6.408-11.857-13.251-11.857-7.364 0-13.333 5.97-13.333 13.333 0 0.781 0.067 1.546 0.196 2.291l-0.011-0.079-0.008-0.071c0.844 5.921 5.45 10.554 11.286 11.43l0.074 0.009 0.072 0.009c0.526 0.073 1.134 0.115 1.752 0.115 0.015 0 0.030-0 0.045-0h0.028c0.007 0 0.014 0 0.022 0 2.54 0 4.911-0.72 6.922-1.966l-0.056 0.032-0.057 0.033c0.273-0.155 0.454-0.443 0.454-0.774 0-0.49-0.397-0.887-0.887-0.887-0.181 0-0.35 0.055-0.491 0.148l0.003-0.002c-1.683 1.020-3.716 1.624-5.89 1.624-6.348 0-11.493-5.146-11.493-11.493s5.146-11.493 11.493-11.493c6.348 0 11.493 5.146 11.493 11.493 0 1.498-0.286 2.928-0.807 4.24l0.027-0.078 0.027-0.079c-0.281 0.727-0.974 1.233-1.785 1.233-1.051 0-1.904-0.849-1.909-1.899v-9.629c0-0.491-0.398-0.889-0.889-0.889s-0.889 0.398-0.889 0.889v0 1.529c-1.306-1.48-3.207-2.409-5.325-2.409-3.915 0-7.089 3.174-7.089 7.089s3.174 7.089 7.089 7.089c2.21 0 4.183-1.011 5.483-2.595l0.010-0.012 0.009-0.012c0.472 1.525 1.869 2.613 3.52 2.613 1.552 0 2.88-0.962 3.419-2.322l0.009-0.025 0.009-0.025c0.545-1.392 0.861-3.004 0.861-4.69 0-0.016-0-0.032-0-0.048v0.002c0-0.013 0-0.028 0-0.043 0-0.67-0.049-1.329-0.142-1.974l0.009 0.073 0.009 0.072zM16.001 21.353c-2.93-0.009-5.301-2.386-5.301-5.317 0-2.937 2.381-5.317 5.317-5.317s5.317 2.381 5.317 5.317v0c-0.009 2.939-2.393 5.317-5.333 5.317 0 0-0 0-0 0v0z"></path>
</svg>
