<!-- Generated by IcoMoon.io -->
<svg version="1.1" xmlns="http://www.w3.org/2000/svg" width="32" height="32" viewBox="0 0 32 32">
<title>hotel</title>
<path d="M26.301 14.149v-7.415c-0.002-1.51-1.225-2.733-2.735-2.735h-15.133c-1.51 0.002-2.733 1.225-2.735 2.735v7.415c-1.752 0.434-3.031 1.991-3.033 3.848v5.531c0 0.442 0.358 0.8 0.8 0.8h2.233v1.921c-0.004 0.029-0.006 0.063-0.006 0.098 0 0.442 0.358 0.8 0.8 0.8s0.8-0.358 0.8-0.8c0-0.034-0.002-0.068-0.006-0.102l0 0.004v-1.927h17.425v1.921c0.050 0.398 0.387 0.702 0.794 0.702s0.744-0.304 0.794-0.698l0-0.004v-1.921h2.239c0.442 0 0.8-0.358 0.8-0.8v0-5.525c-0.002-1.856-1.281-3.414-3.005-3.842l-0.027-0.006zM7.288 6.735c0.001-0.632 0.513-1.145 1.145-1.145h15.133c0.632 0.001 1.145 0.513 1.145 1.145v7.299h-2.625v-1.253c-0.006-2.076-1.689-3.757-3.765-3.76h-4.642c-2.079 0.002-3.764 1.687-3.767 3.765v1.248h-2.625v-7.299zM20.499 12.787v1.247h-8.996v-1.253c0.005-1.199 0.978-2.169 2.177-2.171h4.641c1.202 0.002 2.176 0.975 2.177 2.177v0zM4.255 22.733v-4.736c0.005-1.306 1.063-2.363 2.369-2.364h18.752c1.308 0.002 2.368 1.061 2.369 2.369v4.736h-23.491z"></path>
</svg>
