<!-- Generated by IcoMoon.io -->
<svg version="1.1" xmlns="http://www.w3.org/2000/svg" width="32" height="32" viewBox="0 0 32 32">
<title>kayak</title>
<path d="M29.1 25.171l-2.989-2.989c-0.503-0.502-1.198-0.813-1.965-0.813-0.484 0-0.938 0.123-1.335 0.34l0.014-0.007-2.176-2.176c2.498-2.727 4.542-5.922 5.98-9.428l0.077-0.213c0.65-1.493 1.229-3.264 1.642-5.098l0.039-0.205c0.009-0.044 0.014-0.095 0.014-0.147 0-0.442-0.358-0.8-0.8-0.8-0.052 0-0.103 0.005-0.152 0.014l0.005-0.001c-2.037 0.454-3.807 1.033-5.498 1.76l0.2-0.076c-3.72 1.516-6.914 3.56-9.665 6.080l0.024-0.022-2.217-2.216c0.21-0.382 0.333-0.836 0.333-1.32 0-0.767-0.311-1.462-0.813-1.965l-2.989-2.991c-0.144-0.142-0.343-0.23-0.561-0.23s-0.417 0.088-0.561 0.23l-2.807 2.807c-0.142 0.144-0.23 0.343-0.23 0.561s0.088 0.417 0.23 0.561l2.989 2.989c0.503 0.503 1.198 0.813 1.966 0.813 0.484 0 0.939-0.123 1.335-0.341l-0.014 0.007 2.217 2.217c-2.499 2.727-4.544 5.922-5.983 9.429l-0.077 0.213c-0.649 1.493-1.227 3.264-1.641 5.097l-0.039 0.206c-0.008 0.043-0.013 0.092-0.013 0.143 0 0.439 0.353 0.795 0.791 0.8h0c0.053-0 0.105-0.006 0.155-0.016l-0.005 0.001c2.039-0.453 3.81-1.032 5.502-1.758l-0.2 0.076c3.72-1.515 6.914-3.559 9.665-6.079l-0.024 0.022 2.176 2.176c-0.21 0.382-0.334 0.837-0.334 1.321 0 0.768 0.311 1.462 0.814 1.965l2.989 2.989c0.144 0.143 0.342 0.232 0.561 0.232s0.417-0.089 0.561-0.232v0l2.807-2.807c0.142-0.144 0.23-0.343 0.23-0.561s-0.088-0.417-0.23-0.561l0 0zM8.695 8.695c-0.216 0.216-0.514 0.349-0.843 0.349s-0.627-0.134-0.843-0.349l-2.428-2.429 1.684-1.684 2.428 2.429c0.216 0.216 0.349 0.513 0.349 0.843s-0.134 0.627-0.349 0.843l-0 0zM9.321 25.221c-1.009 0.435-2.275 0.88-3.573 1.248l-0.235 0.057c0.425-1.533 0.871-2.799 1.387-4.027l-0.082 0.219c1.43-3.502 3.351-6.511 5.718-9.107l-0.022 0.024 1.073 1.073c-0.438 0.531-0.785 1.156-1.005 1.838l-0.011 0.040c-0.106 0.26-0.168 0.562-0.168 0.879 0 0.605 0.226 1.158 0.598 1.578l-0.002-0.003c0.371 0.359 0.878 0.58 1.436 0.58 0.024 0 0.049-0 0.073-0.001l-0.004 0c1.091-0.069 2.071-0.499 2.832-1.171l-0.005 0.004 1.067 1.067c-2.572 2.344-5.58 4.266-8.881 5.622l-0.202 0.074zM16.199 17.32c-0.34 0.264-0.736 0.477-1.164 0.617l-0.028 0.008c-0.121 0.056-0.264 0.089-0.414 0.089-0.172 0-0.334-0.043-0.476-0.12l0.005 0.003c-0.074-0.136-0.117-0.298-0.117-0.471 0-0.15 0.033-0.292 0.091-0.42l-0.003 0.006c0.149-0.456 0.362-0.852 0.632-1.201l-0.007 0.009 1.479 1.479zM15.841 14.719c0.34-0.264 0.736-0.477 1.164-0.617l0.028-0.008c0.15-0.048 0.324-0.077 0.503-0.081l0.002-0c0.015-0.002 0.033-0.002 0.051-0.002 0.124 0 0.237 0.042 0.328 0.113l-0.001-0.001c0.074 0.136 0.117 0.298 0.117 0.47 0 0.15-0.033 0.291-0.091 0.419l0.003-0.006c-0.149 0.456-0.362 0.852-0.632 1.201l0.007-0.009-1.477-1.477zM19.525 18.399l-1.067-1.067c1.273-1.6 1.54-3.371 0.583-4.333s-2.74-0.691-4.332 0.588l-1.067-1.067c2.57-2.346 5.576-4.27 8.874-5.629l0.202-0.074c1.011-0.435 2.279-0.881 3.579-1.249l0.234-0.057c-1.39 5.002-3.808 9.328-7.027 12.921l0.027-0.030zM25.732 27.417l-2.428-2.428c-0.215-0.215-0.349-0.513-0.349-0.842 0-0.658 0.533-1.191 1.191-1.191 0.329 0 0.627 0.133 0.842 0.349v0l2.429 2.427z"></path>
</svg>
