<!-- Generated by IcoMoon.io -->
<svg version="1.1" xmlns="http://www.w3.org/2000/svg" width="32" height="32" viewBox="0 0 32 32">
<title>location</title>
<path d="M16.192 2.667c-0.018-0-0.038-0-0.059-0-5.196 0-9.414 4.186-9.466 9.37l-0 0.005c0 0.002 0 0.004 0 0.007 0 1.827 0.53 3.53 1.444 4.964l-0.022-0.037 7.561 11.992c0.144 0.224 0.392 0.369 0.674 0.369 0 0 0 0 0 0h-0c0.284-0.002 0.532-0.152 0.673-0.377l0.002-0.003 7.368-12.108c0.843-1.368 1.343-3.026 1.343-4.8 0-0 0-0 0-0v0c-0.048-5.192-4.268-9.381-9.466-9.381-0.018 0-0.036 0-0.054 0h0.003zM23.011 16.043l-6.699 11.009-6.873-10.904c-0.748-1.163-1.195-2.582-1.2-4.105v-0.001c0-4.388 3.557-7.945 7.945-7.945s7.945 3.557 7.945 7.945v0c-0.002 1.479-0.42 2.86-1.143 4.033l0.019-0.033z"></path>
<path d="M16.192 7.355c-2.557 0.042-4.613 2.125-4.613 4.687 0 2.589 2.099 4.688 4.688 4.688s4.688-2.099 4.688-4.687v-0c-0.024-2.594-2.133-4.688-4.73-4.688-0.011 0-0.023 0-0.034 0h0.002zM16.192 15.177c-1.713-0.025-3.092-1.419-3.092-3.136 0-1.732 1.404-3.136 3.136-3.136s3.136 1.404 3.136 3.136v0c-0.016 1.735-1.426 3.136-3.164 3.136-0.006 0-0.011 0-0.017-0h0.001z"></path>
</svg>
