<!-- Generated by IcoMoon.io -->
<svg version="1.1" xmlns="http://www.w3.org/2000/svg" width="32" height="32" viewBox="0 0 32 32">
<title>museum</title>
<path d="M4 2.667v26.667h23.704v-26.667h-23.704zM26.124 27.771h-6.321v-2.239h6.321zM26.124 23.969h-7.901v3.801h-12.643v-23.541h20.544v19.733z"></path>
<path d="M23.753 13.292c-0.004 0-0.008 0-0.013 0-2.917 0-5.498 1.433-7.080 3.633l-0.018 0.026v-3.389c3.556-0.389 6.301-3.366 6.32-6.989v-0.781h-0.791c-0.003 0-0.008 0-0.012 0-2.724 0-5.091 1.528-6.291 3.774l-0.019 0.038c-1.219-2.284-3.586-3.812-6.31-3.812-0.004 0-0.007 0-0.011 0h-0.79v0.779c0.021 3.624 2.766 6.6 6.29 6.985l0.032 0.003v3.389c-1.6-2.226-4.183-3.659-7.099-3.659-0.004 0-0.008 0-0.012 0h-0.79v0.781c0.029 4.49 3.476 8.166 7.868 8.556l0.033 0.002v3.577h1.58v-3.576c4.425-0.393 7.873-4.069 7.901-8.556v-0.784zM21.317 7.425c-0.397 2.356-2.244 4.186-4.577 4.552l-0.031 0.004c0.395-2.358 2.242-4.189 4.575-4.557l0.031-0.004zM10.384 7.425c2.364 0.371 4.21 2.2 4.603 4.524l0.005 0.032c-2.364-0.373-4.21-2.204-4.601-4.529l-0.005-0.032zM8.784 14.909c3.248 0.383 5.803 2.915 6.219 6.118l0.004 0.036c-3.247-0.387-5.8-2.92-6.212-6.125l-0.004-0.035zM16.684 21.061c0.42-3.239 2.975-5.77 6.189-6.15l0.033-0.003c-0.422 3.234-2.973 5.761-6.182 6.143l-0.034 0.003z"></path>
</svg>
