<!-- Generated by IcoMoon.io -->
<svg version="1.1" xmlns="http://www.w3.org/2000/svg" width="32" height="32" viewBox="0 0 32 32">
<title>payment</title>
<path d="M16.003 5.721c-0.854-0.251-1.835-0.395-2.85-0.395-5.747 0-10.413 4.624-10.483 10.354l-0 0.007c0.071 5.737 4.738 10.36 10.485 10.36 1.014 0 1.995-0.144 2.923-0.413l-0.074 0.018c0.855 0.251 1.837 0.396 2.853 0.396 5.746 0 10.413-4.624 10.481-10.355l0-0.006c-0.068-5.737-4.734-10.361-10.481-10.361-1.016 0-1.998 0.144-2.927 0.414l0.074-0.018zM4.236 15.687c0.044-4.871 4.003-8.802 8.88-8.802 0.070 0 0.141 0.001 0.211 0.002l-0.010-0c-3.003 1.828-4.979 5.083-4.979 8.8s1.975 6.973 4.933 8.774l0.045 0.026c-0.060 0.001-0.13 0.002-0.2 0.002-4.877 0-8.836-3.931-8.88-8.798l-0-0.004zM18.832 24.487c-0.017 0-0.037 0-0.056 0-4.876 0-8.833-3.931-8.877-8.796l-0-0.004c0-4.934 4-8.933 8.933-8.933s8.933 4 8.933 8.933v0c-0.043 4.871-4.001 8.803-8.878 8.803-0.019 0-0.039-0-0.058-0h0.003z"></path>
<path d="M19.945 14.913h-2.224c-0.034 0.003-0.073 0.005-0.113 0.005-0.663 0-1.2-0.537-1.2-1.2s0.537-1.2 1.2-1.2c0.040 0 0.079 0.002 0.118 0.006l-0.005-0h2.145c0.479 0.010 0.908 0.215 1.212 0.539l0.001 0.001c0.144 0.15 0.347 0.244 0.572 0.244 0.207 0 0.396-0.080 0.537-0.21l-0.001 0.001c0.153-0.14 0.248-0.341 0.248-0.564 0-0.205-0.081-0.391-0.212-0.529l0 0c-0.608-0.637-1.464-1.034-2.413-1.034-0.068 0-0.136 0.002-0.203 0.006l0.009-0v-0.925c0-0.433-0.351-0.784-0.784-0.784s-0.784 0.351-0.784 0.784v0 0.927c-0.108-0.015-0.234-0.024-0.361-0.024-1.52 0-2.752 1.232-2.752 2.752s1.232 2.752 2.752 2.752c0.012 0 0.023-0 0.035-0l-0.002 0h2.224c0.034-0.003 0.073-0.005 0.113-0.005 0.663 0 1.2 0.537 1.2 1.2s-0.537 1.2-1.2 1.2c-0.040 0-0.079-0.002-0.118-0.006l0.005 0h-2.339c-0.355-0.009-0.682-0.125-0.951-0.317l0.005 0.004c-0.125-0.086-0.279-0.137-0.446-0.137-0.265 0-0.499 0.13-0.643 0.33l-0.002 0.002c-0.087 0.123-0.14 0.276-0.14 0.441 0 0.263 0.132 0.495 0.334 0.633l0.003 0.002c0.553 0.378 1.237 0.603 1.972 0.603 0.109 0 0.216-0.005 0.323-0.015l-0.014 0.001v0.927c0 0.433 0.351 0.784 0.784 0.784s0.784-0.351 0.784-0.784v0-0.927c0.108 0.015 0.234 0.024 0.361 0.024 1.52 0 2.752-1.232 2.752-2.752s-1.232-2.752-2.752-2.752c-0.012 0-0.023 0-0.035 0l0.002-0z"></path>
</svg>
