<!-- Generated by IcoMoon.io -->
<svg version="1.1" xmlns="http://www.w3.org/2000/svg" width="32" height="32" viewBox="0 0 32 32">
<title>phone-call</title>
<path d="M23.755 19.185c-0.472-0.524-1.148-0.857-1.903-0.872l-0.003-0c-0.762 0.018-1.444 0.347-1.927 0.865l-0.002 0.002-1.781 1.772c-0.147-0.079-0.293-0.152-0.433-0.225-0.203-0.101-0.4-0.196-0.559-0.299-1.798-1.176-3.331-2.574-4.613-4.181l-0.030-0.039c-0.579-0.696-1.087-1.485-1.493-2.332l-0.030-0.069c0.463-0.423 0.891-0.861 1.308-1.283 0.157-0.157 0.316-0.321 0.473-0.479 0.545-0.476 0.888-1.171 0.888-1.947s-0.342-1.472-0.885-1.945l-0.003-0.003-1.535-1.535c-0.175-0.175-0.355-0.355-0.524-0.533-0.337-0.349-0.693-0.709-1.060-1.047-0.477-0.501-1.144-0.816-1.886-0.829l-0.002-0c-0.753 0.015-1.429 0.329-1.918 0.828l-0 0-0.012 0.012-1.913 1.929c-0.688 0.674-1.14 1.587-1.222 2.604l-0.001 0.015c-0.007 0.134-0.010 0.291-0.010 0.45 0 1.343 0.269 2.623 0.756 3.79l-0.024-0.065c1.078 2.762 2.534 5.141 4.337 7.21l-0.025-0.029c2.398 2.867 5.339 5.192 8.676 6.836l0.156 0.069c1.439 0.759 3.12 1.28 4.901 1.462l0.059 0.005c0.119 0 0.243 0.012 0.355 0.012 0.030 0.001 0.065 0.001 0.101 0.001 1.248 0 2.37-0.538 3.148-1.394l0.003-0.003c0-0.012 0.017-0.017 0.023-0.028 0.317-0.365 0.639-0.697 0.978-1.011l0.008-0.008c0.243-0.231 0.491-0.472 0.733-0.725 0.511-0.495 0.833-1.182 0.851-1.945l0-0.003c-0.016-0.764-0.346-1.447-0.866-1.929l-0.002-0.002-3.095-3.101zM25.772 25.112s0 0 0 0c-0.22 0.236-0.445 0.449-0.688 0.687-0.382 0.356-0.737 0.723-1.073 1.108l-0.015 0.017c-0.5 0.552-1.219 0.897-2.018 0.897-0.035 0-0.070-0.001-0.105-0.002l0.005 0c-0.084 0-0.175 0-0.26 0-1.633-0.171-3.124-0.638-4.467-1.348l0.067 0.032c-3.287-1.619-6.054-3.811-8.28-6.472l-0.032-0.040c-1.672-1.918-3.043-4.153-4.006-6.593l-0.054-0.155c-0.404-0.926-0.64-2.005-0.64-3.139 0-0.135 0.003-0.269 0.010-0.403l-0.001 0.019c0.048-0.659 0.336-1.243 0.777-1.671l0.001-0.001 1.921-1.919c0.217-0.23 0.518-0.38 0.854-0.4l0.004-0c0.328 0.022 0.617 0.171 0.822 0.399l0.001 0.001 0.017 0.016c0.344 0.321 0.667 0.652 1.015 1.008 0.175 0.18 0.355 0.36 0.533 0.545l1.547 1.531c0.273 0.197 0.448 0.514 0.448 0.873s-0.176 0.676-0.445 0.87l-0.003 0.002c-0.164 0.163-0.321 0.327-0.485 0.484-0.473 0.484-0.924 0.933-1.415 1.373-0.012 0.012-0.023 0.016-0.028 0.028-0.232 0.21-0.376 0.513-0.376 0.849 0 0.154 0.031 0.302 0.086 0.436l-0.003-0.008c0 0.016 0.012 0.035 0.017 0.051 0.496 1.134 1.104 2.112 1.831 2.987l-0.016-0.020c1.412 1.776 3.065 3.284 4.925 4.499l0.079 0.049c0.186 0.117 0.413 0.242 0.647 0.357l0.046 0.020c0.203 0.101 0.4 0.196 0.559 0.299 0.023 0.012 0.045 0.028 0.068 0.039 0.162 0.087 0.354 0.139 0.558 0.141h0.001c0.34-0.008 0.643-0.155 0.857-0.387l0.001-0.001 1.928-1.925c0.213-0.238 0.511-0.395 0.846-0.422l0.005-0c0.327 0.021 0.614 0.175 0.811 0.409l0.001 0.002 0.012 0.012 3.105 3.101c0.264 0.205 0.433 0.523 0.433 0.881s-0.169 0.675-0.431 0.879l-0.003 0.002z"></path>
<path d="M17.081 9.011c3.019 0.536 5.367 2.881 5.9 5.855l0.007 0.044c0.062 0.359 0.372 0.629 0.744 0.629 0.002 0 0.004 0 0.005-0h-0c0.048-0.001 0.094-0.005 0.139-0.013l-0.006 0.001c0.363-0.062 0.636-0.375 0.636-0.751 0-0.045-0.004-0.089-0.011-0.132l0.001 0.005c-0.652-3.653-3.494-6.491-7.097-7.128l-0.053-0.008c-0.038-0.007-0.082-0.011-0.127-0.011-0.375 0-0.686 0.269-0.752 0.625l-0.001 0.005c-0.008 0.041-0.013 0.089-0.013 0.137 0 0.371 0.269 0.68 0.623 0.741l0.004 0.001z"></path>
<path d="M29.323 14.429c-1.073-6.014-5.751-10.687-11.681-11.738l-0.087-0.013c-0.037-0.006-0.080-0.010-0.124-0.010-0.419 0-0.759 0.34-0.759 0.759 0 0.375 0.272 0.687 0.63 0.748l0.005 0.001c5.377 0.95 9.559 5.126 10.504 10.423l0.012 0.078c0.062 0.359 0.372 0.629 0.744 0.629 0.002 0 0.004 0 0.005-0h-0c0.048-0.001 0.094-0.005 0.139-0.013l-0.006 0.001c0.36-0.057 0.631-0.365 0.631-0.737 0-0.046-0.004-0.091-0.012-0.135l0.001 0.005z"></path>
</svg>
