<!-- Generated by IcoMoon.io -->
<svg version="1.1" xmlns="http://www.w3.org/2000/svg" width="28" height="32" viewBox="0 0 28 32">
<title>river_road</title>
<path d="M28.124 13.903l-5.22-6.516c-0.274-0.342-0.803-0.342-1.076 0l-2.146 2.678-7.366-9.194c-0.274-0.342-0.803-0.342-1.076 0l-10.44 13.031c-0.19 0.237-0.237 0.577-0.121 0.867s0.374 0.477 0.659 0.477l5.198 0v0.473c0 0.446 0.323 0.807 0.722 0.807h2.821v6.097h1.136c-2.256 0.068-4.697 0.037-6.826 0.009-1.265-0.017-2.46-0.032-3.601-0.032v1.613c1.132 0 2.323 0.015 3.584 0.032 8.017 0.105 13.399 0.033 15.088-1.831 0.368-0.407 0.563-0.905 0.563-1.442 0-1.088-0.896-1.537-1.615-1.897-0.833-0.417-1.24-0.679-1.266-1.206 0.322-0.539 2.302-1.216 5.004-1.79-0.425 0.458-0.694 0.981-0.694 1.572 0 1.212 1.164 1.476 2.29 1.732 1.719 0.39 2.846 0.753 2.846 2.186 0 1.2-0.431 2.247-1.318 3.198-5.333 5.725-23.985 4.967-24.173 4.958l-0.057 1.612c0.166 0.007 1.119 0.047 2.575 0.047 5.482 0 18.093-0.555 22.657-5.453 1.169-1.254 1.761-2.722 1.761-4.362 0-2.858-2.505-3.426-4.002-3.767-0.352-0.080-0.853-0.194-1.098-0.305 0.291-0.662 2.304-1.691 4.453-2.25h0.202c0.285 0 0.543-0.187 0.659-0.477s0.069-0.63-0.121-0.867zM7.98 14.914v-1.749h5.981l0.601 0.875-0.601 0.874h-5.982zM15.695 17.815c0 1.671 1.277 2.31 2.121 2.733 0.248 0.124 0.654 0.328 0.761 0.458-0.006 0.067-0.032 0.15-0.133 0.262-0.809 0.893-3.64 1.232-6.921 1.346v-6.087h2.794c0.225 0 0.436-0.117 0.573-0.315l0.663-0.964h3.386c-2.788 0.882-3.244 1.749-3.244 2.567zM16.095 13.634c-0.015-0.029-0.031-0.058-0.049-0.086l-1.156-1.682c-0.137-0.199-0.348-0.315-0.573-0.315h-2.794v-0.889h-1.444v0.889h-2.821c-0.399 0-0.722 0.361-0.722 0.807v1.276l-3.583-0 8.825-11.014 7.366 9.194c0.274 0.342 0.803 0.342 1.076-0l2.146-2.678 3.604 4.5h-9.875z"></path>
</svg>
