<!-- Generated by IcoMoon.io -->
<svg version="1.1" xmlns="http://www.w3.org/2000/svg" width="32" height="32" viewBox="0 0 32 32">
<title>river</title>
<path d="M17.733 17.413c-0.076-0.388-0.224-0.732-0.43-1.033l0.006 0.009c-0.136-0.215-0.216-0.477-0.216-0.757 0-0.327 0.109-0.628 0.293-0.869l-0.003 0.004c0.133-0.176 0.341-0.288 0.576-0.288 0.276 0 0.516 0.156 0.637 0.384l0.002 0.004c0.38 0.568 0.659 1.237 0.795 1.957l0.005 0.033c0.133 0.724-0.275 1.428-0.836 1.428-0.45-0.055-0.799-0.418-0.834-0.869l-0-0.003zM19.121 11.013c-0.785-0.583-1.676-1.244-1.675-1.695 0-0.133 0.103-1.292 3.6-3.019h7.428c0.475 0 0.86-0.515 0.86-1.149s-0.387-1.149-0.861-1.149h-24.947c-0.475 0-0.86 0.513-0.86 1.148s0.385 1.149 0.86 1.149h8.119c-1.249 0.894-2.084 2.297-2.203 3.899l-0.001 0.017c-0.091 3.767 4.667 4.933 4.953 7.873 0.193 1.969-1.817 4.728-5.66 7.771-0.264 0.252-0.428 0.607-0.428 1 0 0.208 0.046 0.406 0.128 0.583l-0.004-0.009c0.091 0.321 0.381 0.552 0.725 0.552 0.171 0 0.329-0.057 0.456-0.154l-0.002 0.001c4.667-3.695 6.791-6.981 6.489-10.047-0.358-2.055-1.482-3.799-3.060-4.96l-0.022-0.015c-0.923-0.853-1.876-1.733-1.857-2.523 0.011-0.44 0.385-2.019 4.712-3.988h1.305c-0.857 0.736-1.408 1.808-1.445 3.010l-0 0.006c0 5.047 9.831 3.164 5.493 17.084-0.237 0.761 0.185 1.592 0.8 1.592 0.397-0.035 0.717-0.324 0.799-0.702l0.001-0.006c1.473-4.733 1.6-8.623 0.389-11.56-0.898-1.965-2.296-3.569-4.035-4.691l-0.043-0.026zM20.411 19.361c-0.469-0.091-0.907 0.344-0.975 0.973-0.139 1.152-0.391 2.197-0.749 3.192l0.032-0.101c-0.267 0.764 0.16 1.628 0.781 1.628 0.381-0.033 0.69-0.303 0.781-0.661l0.001-0.006c0.391-1.076 0.692-2.333 0.848-3.635l0.008-0.083c0.015-0.069 0.023-0.148 0.023-0.229 0-0.491-0.309-0.909-0.743-1.071l-0.008-0.003zM18.299 25.721c-0.422 0.22-0.705 0.654-0.705 1.154 0 0.297 0.1 0.57 0.267 0.789l-0.002-0.003c0.569 0.761 1.541 0.147 1.467-0.925-0.044-0.667-0.515-1.147-1.021-1.015zM7.881 14.275c0-0.635-0.385-1.149-0.86-1.149h-2.741c-0.475 0-0.86 0.515-0.86 1.149s0.385 1.149 0.86 1.149h2.741c0.475 0.001 0.86-0.513 0.86-1.149zM11.107 19.232c0-0.635-0.385-1.149-0.86-1.149h-4.301c-0.475 0-0.86 0.515-0.86 1.149s0.385 1.149 0.86 1.149h4.301c0.475 0 0.86-0.515 0.86-1.149zM23.149 8.239c-0.475 0-0.86 0.515-0.86 1.149s0.385 1.149 0.86 1.149h3.6c0.475 0 0.86-0.515 0.86-1.149s-0.385-1.149-0.86-1.149h-3.6zM28.472 14.203h-1.828c-0.475 0-0.86 0.515-0.86 1.149s0.385 1.149 0.86 1.149h1.828c0.475 0 0.86-0.515 0.86-1.149s-0.385-1.149-0.86-1.149zM26.86 20.237h-0.645c-0.475 0-0.86 0.515-0.86 1.149s0.385 1.149 0.86 1.149h0.645c0.475 0 0.86-0.515 0.86-1.149s-0.385-1.149-0.86-1.149z"></path>
</svg>
